<?xml version="1.0" encoding="utf-8"?>
<!-- Generator: Adobe Illustrator 26.5.0, SVG Export Plug-In . SVG Version: 6.00 Build 0)  -->
<svg version="1.1" id="Layer_1" xmlns="http://www.w3.org/2000/svg" xmlns:xlink="http://www.w3.org/1999/xlink" x="0px" y="0px"
	 viewBox="0 0 800 800" style="enable-background:new 0 0 800 800;" xml:space="preserve">
<style type="text/css">
	.st0{fill:#EE513B;}
	.st1{fill:#FFFFFF;}
</style>
<path class="st0" d="M64.6,435.3c-19.5-19.5-19.5-51.1,0-70.7l300-300c19.5-19.5,51.1-19.5,70.7,0l300,300
	c19.5,19.5,19.5,51.1,0,70.7l-300,300c-19.5,19.5-51.1,19.5-70.7,0L64.6,435.3z"/>
<path class="st1" d="M303.2,126l-30.4,30.4l79,79c-3.2,6.8-4.9,14.4-4.9,22.4c0,22.7,14.3,42.1,34.4,49.7v192
	c-20.1,7.6-34.4,27-34.4,49.7c0,29.3,23.8,53.1,53.1,53.1c29.3,0,53.1-23.8,53.1-53.1c0-20.6-11.7-38.5-28.9-47.3V307.8l75,75
	c-3,6.7-4.7,14.1-4.7,21.9c0,29.3,23.8,53.1,53.1,53.1s53.1-23.8,53.1-53.1c0-29.3-23.8-53.1-53.1-53.1c-5.7,0-11.2,0.9-16.3,2.6
	l-80.6-80.6c1.5-5,2.4-10.3,2.4-15.7c0-29.3-23.8-53.1-53.1-53.1c-5.5,0-10.8,0.8-15.7,2.4l-80.5-80.5L303.2,126z"/>
</svg>
