<?xml version="1.0" encoding="utf-8"?>
<!-- Generator: Adobe Illustrator 26.5.0, SVG Export Plug-In . SVG Version: 6.00 Build 0)  -->
<svg version="1.1" id="Layer_1" xmlns="http://www.w3.org/2000/svg" xmlns:xlink="http://www.w3.org/1999/xlink" x="0px" y="0px"
	 viewBox="0 0 800 800" style="enable-background:new 0 0 800 800;" xml:space="preserve">
<style type="text/css">
	.st0{fill:#E5E7EB;}
</style>
<path class="st0" d="M400,0C179.1,0,0,179.1,0,400s179.1,400,400,400s400-179.1,400-400S620.9,0,400,0z M595.3,686.4L261.3,224
	c-8.8-11.8-25.5-14.2-37.3-5.3c-6.7,5-10.7,12.9-10.7,21.3v400h53.3V322.5l282.2,390.7c-45.1,21.5-95.6,33.5-148.8,33.5
	C208.5,746.7,53.3,591.5,53.3,400S208.5,53.3,400,53.3S746.7,208.5,746.7,400C746.7,519,686.7,624,595.3,686.4z"/>
<rect x="533.3" y="213.3" class="st0" width="53.3" height="320"/>
</svg>
